<svg width="477" height="95" viewBox="0 0 477 95" fill="none" xmlns="http://www.w3.org/2000/svg">
<path d="M37.34 93.5V59.196L0.732 3.89999H22.108L47.196 42.812L72.412 3.89999H92.636L55.9 59.324V93.5H37.34ZM125.637 93.5V20.284H95.429V3.89999H174.277V20.284H144.197V93.5H125.637Z" fill="#EF4444"/>
<path d="M228.721 94.908C222.065 94.908 215.878 93.756 210.161 91.452C204.444 89.0627 199.409 85.7773 195.057 81.596C190.705 77.3293 187.292 72.4227 184.817 66.876C182.428 61.244 181.233 55.1853 181.233 48.7C181.233 42.2147 182.428 36.1987 184.817 30.652C187.292 25.02 190.662 20.1133 194.929 15.932C199.196 11.6653 204.188 8.38 209.905 6.076C215.708 3.68666 221.894 2.492 228.465 2.492C235.889 2.492 242.886 3.98533 249.457 6.97199C256.028 9.87333 261.446 13.9693 265.713 19.26L252.785 31.164C249.713 27.324 246.086 24.4227 241.905 22.46C237.724 20.4973 233.244 19.516 228.465 19.516C224.454 19.516 220.742 20.284 217.329 21.82C213.916 23.2707 210.929 25.3187 208.369 27.964C205.809 30.524 203.804 33.596 202.353 37.18C200.988 40.6787 200.305 44.5187 200.305 48.7C200.305 52.8813 201.03 56.764 202.481 60.348C203.932 63.932 205.937 67.0467 208.497 69.692C211.142 72.252 214.172 74.3 217.585 75.836C221.084 77.2867 224.881 78.012 228.977 78.012C233.244 78.012 237.084 77.244 240.497 75.708C243.91 74.0867 246.769 71.868 249.073 69.052C251.462 66.1507 253.041 62.908 253.809 59.324H227.313V43.196H273.649V48.828C273.649 55.484 272.497 61.628 270.193 67.26C267.974 72.8067 264.86 77.6707 260.849 81.852C256.838 85.948 252.102 89.148 246.641 91.452C241.18 93.756 235.206 94.908 228.721 94.908ZM285.162 93.5V26.812H302.698V34.236C304.831 31.3347 307.391 29.116 310.378 27.58C313.365 26.044 316.735 25.276 320.49 25.276C323.733 25.3613 326.165 25.8733 327.786 26.812V42.172C326.506 41.5747 325.098 41.148 323.562 40.892C322.026 40.5507 320.447 40.38 318.826 40.38C315.413 40.38 312.298 41.2333 309.482 42.94C306.666 44.6467 304.405 47.0787 302.698 50.236V93.5H285.162ZM356.785 94.652C352.006 94.652 347.782 93.7987 344.113 92.092C340.444 90.3 337.585 87.868 335.537 84.796C333.489 81.724 332.465 78.1827 332.465 74.172C332.465 67.772 334.854 62.8227 339.633 59.324C344.497 55.74 351.153 53.948 359.601 53.948C365.404 53.948 370.865 54.844 375.985 56.636V51.772C375.985 47.932 374.79 45.0307 372.401 43.068C370.012 41.1053 366.513 40.124 361.905 40.124C359.089 40.124 356.06 40.5933 352.817 41.532C349.574 42.3853 345.82 43.7507 341.553 45.628L335.153 32.7C340.444 30.3107 345.478 28.5187 350.257 27.324C355.121 26.1293 359.985 25.532 364.849 25.532C373.809 25.532 380.764 27.708 385.713 32.06C390.748 36.3267 393.265 42.3853 393.265 50.236V93.5H375.985V88.764C373.254 90.812 370.31 92.3053 367.153 93.244C363.996 94.1827 360.54 94.652 356.785 94.652ZM349.105 73.788C349.105 76.348 350.214 78.396 352.433 79.932C354.652 81.3827 357.596 82.108 361.265 82.108C364.166 82.108 366.854 81.7667 369.329 81.084C371.804 80.316 374.022 79.2067 375.985 77.756V68.028C373.852 67.1747 371.633 66.5347 369.329 66.108C367.025 65.6813 364.55 65.468 361.905 65.468C357.894 65.468 354.737 66.236 352.433 67.772C350.214 69.2227 349.105 71.228 349.105 73.788ZM406.537 93.5V3.89999L424.073 0.955994V32.188C429.364 28.0067 435.593 25.916 442.761 25.916C449.076 25.916 454.793 27.452 459.913 30.524C465.033 33.596 469.086 37.7347 472.073 42.94C475.145 48.06 476.681 53.82 476.681 60.22C476.681 66.62 475.145 72.4227 472.073 77.628C469.001 82.748 464.862 86.844 459.657 89.916C454.452 92.9027 448.649 94.396 442.249 94.396C438.921 94.396 435.678 93.9267 432.521 92.988C429.364 92.0493 426.462 90.684 423.817 88.892V93.5H406.537ZM439.945 79.548C443.614 79.548 446.9 78.6947 449.801 76.988C452.788 75.2813 455.134 72.9773 456.841 70.076C458.548 67.1747 459.401 63.8893 459.401 60.22C459.401 56.5507 458.548 53.2653 456.841 50.364C455.134 47.3773 452.788 45.0733 449.801 43.452C446.9 41.7453 443.614 40.892 439.945 40.892C436.702 40.892 433.716 41.4467 430.985 42.556C428.34 43.58 426.036 45.1587 424.073 47.292V73.276C425.95 75.2387 428.254 76.7747 430.985 77.884C433.801 78.9933 436.788 79.548 439.945 79.548Z" fill="#E2E8F0"/>
</svg>
